HIERARCHY
ROOT Hips
{
	OFFSET 0.000000 0.000000 0.000000
	CHANNELS 6 Xposition Yposition Zposition Zrotation Yrotation Xrotation 
	JOINT LeftUpLeg_virtual
	{
		OFFSET 0.000000 0.000000 0.000000
		CHANNELS 3 Zrotation Yrotation Xrotation
		JOINT LeftUpLeg
		{
			OFFSET 8.479694 -4.795517 -0.379053
			CHANNELS 3 Zrotation Yrotation Xrotation
			JOINT LeftLeg
			{
				OFFSET 0.485052 -32.551468 0.112863
				CHANNELS 3 Zrotation Yrotation Xrotation
				JOINT LeftFoot
				{
					OFFSET 0.438033 -32.635670 -3.012641
					CHANNELS 3 Zrotation Yrotation Xrotation
					JOINT LeftToeBase
					{
						OFFSET 0.970169 -13.225353 11.864223
						CHANNELS 3 Zrotation Yrotation Xrotation
						End Site
						{
							OFFSET 0.000000 0.000000 0.000000
						}
					}
				}
			}
		}
	}
	JOINT RightUpLeg_virtual
	{
		OFFSET 0.000000 0.000000 0.000000
		CHANNELS 3 Zrotation Yrotation Xrotation
		JOINT RightUpLeg
		{
			OFFSET -8.479694 -4.795517 -0.379053
			CHANNELS 3 Zrotation Yrotation Xrotation
			JOINT RightLeg
			{
				OFFSET -0.484100 -32.551483 0.112903
				CHANNELS 3 Zrotation Yrotation Xrotation
				JOINT RightFoot
				{
					OFFSET -0.438985 -32.635651 -3.012681
					CHANNELS 3 Zrotation Yrotation Xrotation
					JOINT RightToeBase
					{
						OFFSET -0.970169 -13.225354 11.864223
						CHANNELS 3 Zrotation Yrotation Xrotation
						End Site
						{
							OFFSET 0.000000 0.000000 0.000000
						}
					}
				}
			}
		}
	}
	JOINT Spine_virtual
	{
		OFFSET 0.000000 0.000000 0.000000
		CHANNELS 3 Zrotation Yrotation Xrotation
		JOINT Spine
		{
			OFFSET 0.000000 7.722015 1.166203
			CHANNELS 3 Zrotation Yrotation Xrotation
			JOINT Spine1
			{
				OFFSET 0.000000 12.024086 0.248766
				CHANNELS 3 Zrotation Yrotation Xrotation
				JOINT Spine2
				{
					OFFSET -0.000000 11.503036 -0.491240
					CHANNELS 3 Zrotation Yrotation Xrotation
					JOINT Neck_virtual
					{
						OFFSET 0.000000 0.000000 0.000000
						CHANNELS 3 Zrotation Yrotation Xrotation
						JOINT Neck
						{
							OFFSET 0.000000 18.430687 -3.123054
							CHANNELS 3 Zrotation Yrotation Xrotation
							JOINT Head
							{
								OFFSET -0.000000 9.051071 1.034021
								CHANNELS 3 Zrotation Yrotation Xrotation
								End Site
								{
									OFFSET 0.000000 0.000000 0.000000
								}
							}
						}
					}
					JOINT LeftShoulder_virtual
					{
						OFFSET 0.000000 0.000000 0.000000
						CHANNELS 3 Zrotation Yrotation Xrotation
						JOINT LeftShoulder
						{
							OFFSET 6.197824 13.665230 -4.064723
							CHANNELS 3 Zrotation Yrotation Xrotation
							JOINT LeftArm
							{
								OFFSET 7.778132 -0.187073 -1.709282
								CHANNELS 3 Zrotation Yrotation Xrotation
								JOINT LeftForeArm
								{
									OFFSET 21.954697 0.000000 -2.041093
									CHANNELS 3 Zrotation Yrotation Xrotation
									JOINT LeftHand
									{
										OFFSET 22.992908 0.000000 -0.870901
										CHANNELS 3 Zrotation Yrotation Xrotation
										End Site
										{
											OFFSET 0.000000 0.000000 0.000000
										}
									}
								}
							}
						}
					}
					JOINT RightShoulder_virtual
					{
						OFFSET 0.000000 0.000000 0.000000
						CHANNELS 3 Zrotation Yrotation Xrotation
						JOINT RightShoulder
						{
							OFFSET -6.197824 13.665230 -4.064723
							CHANNELS 3 Zrotation Yrotation Xrotation
							JOINT RightArm
							{
								OFFSET -7.778132 -0.187073 -1.709282
								CHANNELS 3 Zrotation Yrotation Xrotation
								JOINT RightForeArm
								{
									OFFSET -21.954697 0.000000 -2.041093
									CHANNELS 3 Zrotation Yrotation Xrotation
									JOINT RightHand
									{
										OFFSET -22.992908 0.000000 -0.870901
										CHANNELS 3 Zrotation Yrotation Xrotation
										End Site
										{
											OFFSET 0.000000 0.000000 0.000000
										}
									}
								}
							}
						}
					}
				}
			}
		}
	}
}
MOTION
Frames: 4
Frame Time: 0.033333
-75.278244 81.062561 98.726730 179.792695 43.577341 179.823212 -0.396800 -3.196311 8.979218 4.051684 -0.538980 -30.756335 7.418823 3.256990 34.543176 -6.926325 -8.246782 -1.364635 0.000000 0.000000 0.000000 3.777221 -3.525480 7.902925 1.388156 3.089204 -24.030282 -0.617496 3.709519 29.628100 2.863960 9.071387 -5.234371 0.000000 0.000000 0.000000 5.828159 0.231516 -0.860874 3.362074 -0.087354 -6.292012 -2.487280 -2.345523 11.843891 -0.005561 0.013935 0.027902 -2.609957 -1.041571 12.314212 -9.829184 2.022552 -0.508393 0.000000 0.000000 0.000000 -0.740057 -0.527543 8.919978 -3.772237 1.530365 3.693774 -64.467342 -8.403982 21.797939 3.853059 -36.034183 14.601968 0.000000 0.000000 0.000000 -5.320582 1.175600 8.299332 27.379175 4.196817 3.969414 53.262355 2.743710 11.336510 -4.677831 32.563084 -2.645150 0.000000 0.000000 0.000000 
-75.273148 81.029251 98.593513 179.781944 43.605721 179.829646 -0.688824 -3.234912 9.052868 4.334705 -0.284286 -30.445145 7.154254 2.940768 34.461637 -7.041379 -8.639731 -1.153508 0.000000 0.000000 0.000000 3.838551 -3.760838 7.950100 1.692213 2.556353 -24.141010 -0.780842 3.258375 30.168078 2.295711 8.436370 -5.046516 0.000000 0.000000 0.000000 5.707859 0.339770 -0.938496 3.287577 -0.091186 -6.420456 -2.466881 -2.326850 11.805872 -0.000121 0.045157 0.011182 -2.585808 -1.132265 12.363403 -9.874927 2.087537 -0.524632 0.000000 0.000000 0.000000 -0.697430 -0.533873 8.981414 -3.642755 1.401768 3.627277 -64.266063 -9.269397 21.359964 3.678429 -37.268975 14.600820 0.000000 0.000000 0.000000 -5.284308 1.130414 8.327548 27.270758 4.043905 3.923077 53.163658 2.555430 10.937837 -4.800532 32.840861 -2.911435 0.000000 0.000000 0.000000 
-75.316818 80.964073 98.415070 179.845656 43.498323 179.954366 -1.042806 -3.300712 9.196844 4.634073 0.143464 -29.764643 7.086636 2.713116 34.104238 -7.953576 -9.041172 -1.740402 0.000000 0.000000 0.000000 3.752155 -3.489291 8.059546 1.770286 2.595104 -24.287646 -0.836704 3.219214 30.373124 2.272719 8.383268 -5.255787 0.000000 0.000000 0.000000 5.610052 0.332822 -1.107903 3.181996 -0.140594 -6.594379 -2.418528 -2.346659 11.716552 0.054681 0.014161 0.007610 -2.608936 -1.139898 12.326835 -9.892278 2.124840 -0.547349 0.000000 0.000000 0.000000 -0.709819 -0.563275 8.875663 -3.537559 1.364753 3.535487 -63.842181 -10.531369 20.419978 3.261736 -39.577091 14.878753 0.000000 0.000000 0.000000 -5.312146 1.135396 8.311711 27.358633 3.945251 3.948010 52.788609 2.297609 10.283155 -4.774219 33.294201 -2.766612 0.000000 0.000000 0.000000 
-75.425972 80.884224 98.224503 179.923698 43.667162 -179.911199 -1.023844 -3.220917 9.314579 4.343242 0.597354 -29.029400 7.630365 2.672045 33.225117 -9.026361 -9.624535 -3.686945 0.000000 0.000000 0.000000 3.627011 -3.095205 8.091595 1.816964 2.538958 -24.434390 -0.876416 3.220863 30.523204 2.389344 8.442528 -5.476480 0.000000 0.000000 0.000000 5.541464 0.390253 -1.270835 2.986913 -0.143765 -6.705529 -2.341976 -2.304868 11.643838 0.001483 0.077308 0.034551 -2.497972 -1.083534 12.291988 -9.852743 2.235029 -0.536706 0.000000 0.000000 0.000000 -0.533986 -0.552758 8.781179 -3.461495 1.255153 3.492196 -63.315212 -11.925572 19.218716 2.608705 -42.450056 15.284893 0.000000 0.000000 0.000000 -5.174515 1.105901 8.315651 27.435627 3.918906 3.929487 52.384774 1.932549 9.716382 -4.641203 33.687115 -2.585345 0.000000 0.000000 0.000000 
